
<svg xmlns="http://www.w3.org/2000/svg" version="1.1" xmlns:xlink="http://www.w3.org/1999/xlink" preserveAspectRatio="none" x="0px" y="0px" width="550px" height="400px" viewBox="0 0 550 400">
<defs>
<g id="Layer0_0_FILL">
<path fill="#CCCCCC" stroke="none" d="
M 384 338.9
Q 389.5 327.7 386.05 316.3
L 306.25 67.05
Q 302.6 55.45 291.65 49.5 284.6 45.6 277.3 45.85 270.45 45.6 263.15 49.5 252.45 55.45 248.8 67.05
L 194.75 235.15 129.95 65.7
Q 125.2 53.85 114.25 48.8 102.85 43.55 91.45 48.15 79.55 52.45 74.8 63.65 69.3 75.25 73.65 86.9
L 167.35 330.9
Q 168.05 333.4 169.65 335.7 170.35 337.3 171 338.9 176.5 350.05 188.6 353.5 200.65 357.35 211.4 351.65 222.55 345.95 226.2 334.35
L 277.3 174 328.6 334.35
Q 332.5 345.95 343.45 351.65 354.35 357.35 366.25 353.5 378.3 350.05 384 338.9
M 477.3 86.9
Q 481.65 75.25 476.4 63.65 471.6 52.45 459.95 48.15 448.35 43.55 436.7 48.8 425.55 53.85 421.2 65.7
L 377.85 181.1
Q 373.55 192.5 378.55 203.9 383.55 215.05 395.4 219.4 406.85 223.95 418.45 218.7 429.65 213.7 433.95 202.05
L 477.3 86.9 Z"/>
</g>
</defs>

<g transform="matrix( 1, 0, 0, 1, 0,0) ">
<use xlink:href="#Layer0_0_FILL"/>
</g>
</svg>
