<?xml version="1.0" encoding="UTF-8" standalone="no"?>
<svg width="368px" height="367px" viewBox="0 0 368 367" version="1.1" xmlns="http://www.w3.org/2000/svg" xmlns:xlink="http://www.w3.org/1999/xlink" xmlns:sketch="http://www.bohemiancoding.com/sketch/ns">
    <!-- Generator: Sketch 3.2.2 (9983) - http://www.bohemiancoding.com/sketch -->
    <title>group</title>
    <desc>Created with Sketch.</desc>
    <defs></defs>
    <g id="Page-1" stroke="none" stroke-width="1" fill="none" fill-rule="evenodd" sketch:type="MSPage">
        <g id="group" sketch:type="MSLayerGroup" transform="translate(182.500000, 185.500000) scale(-1, 1) translate(-182.500000, -185.500000) translate(-3.000000, 0.000000)" fill="#B0C7DD">
            <path d="M284.411918,141.933702 C284.609265,102.731034 270.870428,69.3273717 243.201211,41.7111287 C215.340452,13.9037096 181.669564,0 142.205959,0 C103.026766,0 69.6518982,13.9037096 41.7911389,41.7111287 C14.2205959,69.2288871 0.290216243,102.829519 0,141.933702 C0.290216243,181.037885 14.2205959,214.638516 42.0813552,242.445935 C69.6518982,269.963694 103.026766,283.867403 142.205959,283.867403 C170.362739,283.867403 195.895964,276.625888 218.248419,262.432518 L323.016482,367 L368,322.102605 L263.226132,217.535122 C277.446728,195.231255 284.411918,170.030781 284.411918,141.933702 L284.411918,141.933702 Z M200.174688,84.9679144 C216.15508,100.850267 224,119.909091 224,142.144385 C223.709447,154.561497 221.094474,166.40107 216.15508,177.085561 C212.377897,184.882353 207.14795,192.390374 200.174688,199.320856 C193.491979,205.962567 185.937611,211.160428 178.092692,214.914439 C167.051693,220.112299 155.139037,222.71123 142.639465,223 C120.266916,223 101.096257,215.203209 85.1158645,199.320856 C69.1354724,183.438503 61.2847415,164.379679 61,141.855615 C61.2905526,119.620321 69.1354724,100.850267 85.1158645,84.9679144 C101.096257,69.0855615 119.982175,61.2887701 142.354724,61 C165.017825,61.2887701 184.194296,69.0855615 200.174688,84.9679144 L200.174688,84.9679144 Z" id="path11" sketch:type="MSShapeGroup"></path>
        </g>
    </g>
</svg>